<?xml version="1.0" standalone="no"?>
<!DOCTYPE svg PUBLIC "-//W3C//DTD SVG 20010904//EN"
 "http://www.w3.org/TR/2001/REC-SVG-20010904/DTD/svg10.dtd">
<svg version="1.0" xmlns="http://www.w3.org/2000/svg"
 width="816.000000pt" height="241.000000pt" viewBox="0 0 816.000000 241.000000"
 preserveAspectRatio="xMidYMid meet">

<g transform="translate(0.000000,241.000000) scale(0.100000,-0.100000)"
fill="#000000" stroke="none">
<path d="M0 1205 l0 -1205 4080 0 4080 0 0 1205 0 1205 -4080 0 -4080 0 0
-1205z m1121 747 l-43 -36 94 -12 c412 -52 719 -418 695 -829 -7 -121 -26
-194 -77 -300 -101 -210 -291 -367 -516 -426 -58 -15 -111 -20 -199 -20 -88 0
-141 5 -199 20 -326 85 -568 374 -593 709 -4 45 -2 72 4 72 6 0 13 -33 17 -74
31 -345 281 -627 616 -696 71 -14 239 -14 310 0 472 97 742 603 561 1050 -105
257 -360 445 -644 476 l-62 6 34 -36 c47 -49 30 -59 -19 -11 -52 51 -52 76 2
115 58 42 72 37 19 -8z m71 -269 c8 -10 21 -47 28 -81 7 -35 19 -66 26 -69 7
-2 38 12 68 31 31 20 67 36 79 36 27 0 167 -136 167 -162 0 -10 -18 -45 -39
-80 -22 -34 -38 -65 -35 -69 2 -4 38 -15 79 -24 51 -12 79 -23 85 -35 13 -24
13 -196 0 -220 -6 -12 -30 -23 -67 -30 -32 -7 -68 -16 -81 -21 -23 -9 -23 -9
-5 -40 16 -27 22 -30 51 -24 18 3 39 8 47 11 8 3 21 -12 35 -41 36 -73 25
-102 -78 -206 -103 -103 -135 -116 -208 -81 l-43 21 -11 -39 c-11 -41 -55 -86
-95 -96 -13 -3 -73 -4 -134 -2 -106 3 -111 4 -141 33 -17 16 -35 46 -42 66
l-11 37 -31 -19 c-41 -25 -100 -24 -142 2 -18 11 -62 52 -98 90 -79 85 -89
120 -57 186 20 41 20 44 4 49 -98 30 -116 57 -121 180 -3 51 -1 109 2 128 9
48 50 93 97 107 21 7 39 14 39 15 0 2 -9 18 -20 36 -41 68 -25 111 82 214 106
104 130 112 211 73 l44 -22 -13 -43 c-12 -41 -12 -43 11 -58 30 -20 38 -10 54
69 20 91 26 95 146 95 85 0 104 -3 117 -17z m3283 -167 c59 -27 117 -88 136
-142 33 -95 3 -241 -66 -322 -118 -137 -404 -157 -516 -35 -51 54 -64 91 -64
183 0 98 18 151 72 218 71 87 152 121 288 121 84 1 108 -3 150 -23z m-1832
-268 c37 -156 67 -287 67 -291 0 -4 -44 -6 -97 -5 l-98 3 -9 48 -8 47 -112 0
-113 0 -27 -50 -27 -50 -105 0 -104 0 27 43 c101 161 309 487 325 510 19 26
22 27 117 27 l97 0 67 -282z m397 269 c0 -8 -13 -81 -30 -162 -16 -81 -30
-165 -30 -185 0 -58 48 -89 108 -69 47 15 63 56 103 260 l33 169 99 0 c89 0
98 -2 93 -17 -3 -10 -19 -89 -35 -175 -36 -181 -58 -248 -102 -301 -64 -78
-181 -115 -305 -98 -71 10 -108 28 -146 68 -58 61 -61 123 -17 344 16 85 32
160 34 167 6 18 195 17 195 -1z m956 -4 c-2 -10 -10 -44 -16 -75 l-11 -57 -87
-3 -86 -3 -43 -210 c-23 -115 -42 -211 -43 -212 0 -2 -44 -3 -99 -3 l-98 0 38
193 c21 105 41 202 44 215 5 21 3 22 -80 22 -47 0 -85 4 -85 10 0 11 20 110
25 128 3 9 67 12 275 12 254 0 271 -1 266 -17z m949 -5 c-16 -68 -35 -171 -32
-174 1 -1 50 42 107 96 l105 99 115 0 115 1 -85 -77 c-47 -43 -112 -103 -144
-134 l-60 -57 75 -126 c41 -69 78 -124 83 -123 5 2 82 117 171 257 l163 255
101 3 c55 1 101 0 101 -3 0 -3 29 -129 65 -280 36 -152 65 -280 65 -285 0 -6
-39 -10 -94 -10 -103 0 -97 -4 -111 68 l-7 32 -111 0 -112 0 -27 -50 -28 -50
-184 0 -184 0 -53 85 c-29 47 -56 88 -62 92 -20 13 -57 -43 -70 -107 l-13 -65
-98 -3 c-90 -3 -98 -1 -94 15 3 10 29 141 59 291 l54 272 97 0 c97 0 98 0 93
-22z m1514 -8 c65 -37 84 -68 89 -145 6 -99 -33 -177 -109 -215 -43 -22 -45
-27 -26 -55 8 -11 28 -46 46 -77 l32 -58 -103 0 -103 0 -39 70 c-34 59 -44 70
-66 70 -25 0 -28 -4 -39 -70 l-13 -70 -100 0 c-91 0 -100 2 -96 18 3 9 29 140
59 290 l54 273 185 -3 c176 -3 187 -4 229 -28z m701 23 c0 -7 -11 -57 -25
-120 -5 -22 -10 -23 -90 -23 -47 0 -85 -1 -85 -2 -1 -2 -20 -97 -43 -213 l-43
-210 -97 -3 c-76 -2 -97 0 -97 11 0 7 18 103 40 212 22 109 40 200 40 202 0 2
-38 3 -85 3 -47 0 -85 3 -85 8 0 6 11 56 25 120 l5 22 270 0 c149 0 270 -3
270 -7z m-4172 -715 c-6 -18 -28 -21 -28 -4 0 9 7 16 16 16 9 0 14 -5 12 -12z
m2052 -32 l0 -44 29 14 c37 19 75 10 101 -23 26 -33 25 -73 -1 -107 -16 -21
-29 -26 -63 -26 -23 0 -47 5 -54 12 -9 9 -12 9 -12 0 0 -7 -4 -12 -10 -12 -6
0 -10 45 -10 115 0 70 4 115 10 115 6 0 10 -20 10 -44z m238 32 c-6 -18 -28
-21 -28 -4 0 9 7 16 16 16 9 0 14 -5 12 -12z m102 -103 c0 -96 -3 -115 -15
-115 -12 0 -15 19 -15 115 0 96 3 115 15 115 12 0 15 -19 15 -115z m1921 100
c-1 -15 -24 -12 -29 3 -3 9 2 13 12 10 10 -1 17 -7 17 -13z m-5115 -9 c24 -18
13 -31 -14 -17 -38 20 -82 13 -113 -18 -31 -31 -36 -64 -18 -104 15 -34 48
-49 95 -45 37 3 39 5 44 42 7 58 30 59 30 2 0 -54 -15 -66 -88 -66 -41 0 -55
5 -81 29 -26 24 -31 37 -31 73 1 77 40 117 116 118 22 0 49 -6 60 -14z m1562
-80 c55 -124 56 -126 43 -126 -6 0 -17 14 -26 30 -15 28 -19 30 -76 30 -58 0
-60 -1 -70 -30 -6 -16 -17 -30 -25 -30 -12 0 -12 5 0 33 52 120 87 187 99 187
7 0 32 -42 55 -94z m362 59 c0 -9 9 -15 25 -15 16 0 25 -6 25 -15 0 -9 -9 -15
-25 -15 -25 0 -26 -2 -23 -57 3 -55 4 -58 31 -61 39 -5 34 -22 -7 -22 -40 0
-46 11 -46 86 0 41 -4 54 -15 54 -8 0 -15 7 -15 15 0 8 7 15 15 15 8 0 15 7
15 15 0 8 5 15 10 15 6 0 10 -7 10 -15z m-1721 -30 c30 -15 41 -33 41 -66 0
-17 -8 -19 -71 -19 l-71 0 15 -22 c12 -19 23 -23 66 -22 43 2 50 -1 40 -12 -6
-8 -30 -14 -54 -14 -35 0 -48 5 -64 26 -36 45 -25 104 24 132 27 15 41 15 74
-3z m156 1 c26 19 48 18 79 -7 23 -18 26 -27 26 -85 0 -36 -4 -64 -10 -64 -5
0 -10 23 -10 51 0 69 -12 89 -55 89 -43 0 -55 -20 -55 -89 0 -39 -4 -51 -15
-51 -12 0 -15 15 -15 78 0 82 7 103 25 79 9 -13 13 -13 30 -1z m205 -49 c0
-70 10 -87 51 -87 39 0 59 33 59 97 0 29 5 53 10 53 6 0 10 -35 10 -85 0 -50
-4 -85 -10 -85 -5 0 -10 5 -10 12 0 9 -3 9 -12 0 -17 -17 -78 -15 -100 5 -14
13 -18 31 -18 85 0 39 4 68 10 68 6 0 10 -28 10 -63z m240 -28 c0 -64 -3 -79
-15 -79 -12 0 -15 15 -15 78 0 43 3 82 6 85 17 16 24 -10 24 -84z m129 81 c27
14 68 3 86 -23 17 -24 21 -137 5 -137 -5 0 -10 20 -10 44 0 71 -14 96 -53 96
-46 0 -57 -15 -57 -82 0 -45 -3 -58 -15 -58 -12 0 -15 15 -15 78 0 83 5 99 26
81 9 -7 19 -7 33 1z m303 -18 c10 -9 19 -28 20 -42 3 -24 1 -25 -64 -28 -51
-2 -68 -7 -68 -17 0 -22 39 -38 81 -32 39 5 53 -5 23 -17 -30 -12 -82 -6 -103
12 -12 9 -24 34 -28 54 -5 32 -1 41 26 69 27 26 37 30 64 25 18 -4 40 -14 49
-24z m448 -21 c0 -77 13 -101 54 -101 43 0 50 10 56 85 7 88 25 74 28 -22 2
-69 0 -83 -13 -83 -8 0 -15 5 -15 12 0 9 -3 9 -12 0 -21 -21 -85 -15 -102 10
-18 25 -23 148 -6 148 6 0 10 -22 10 -49z m488 13 c28 -31 28 -73 1 -108 -29
-37 -99 -37 -128 0 -32 40 -28 87 11 119 38 32 81 29 116 -11z m143 28 c21 7
36 6 60 -6 28 -14 33 -14 55 0 27 18 64 13 88 -12 18 -18 23 -144 6 -144 -5 0
-10 23 -10 51 0 65 -13 89 -49 89 -39 0 -54 -21 -59 -86 -6 -72 -22 -69 -22 4
0 64 -11 82 -50 82 -39 0 -50 -18 -50 -82 0 -45 -3 -58 -15 -58 -12 0 -15 15
-15 78 0 79 6 100 23 83 6 -6 20 -5 38 1z m408 -7 c37 -19 54 -64 39 -105 -12
-37 -35 -50 -82 -50 -87 0 -114 118 -36 157 32 16 45 16 79 -2z m371 -76 c0
-64 -3 -79 -15 -79 -12 0 -15 15 -15 78 0 43 3 82 6 85 17 16 24 -10 24 -84z
m303 60 c9 -12 17 -32 17 -45 0 -23 -3 -24 -71 -24 l-71 0 15 -22 c12 -19 23
-23 66 -22 50 2 67 -8 35 -20 -9 -3 -33 -6 -54 -6 -77 0 -106 85 -50 142 26
25 36 29 63 24 18 -3 40 -16 50 -27z m295 7 c8 -8 16 -43 19 -78 l5 -64 -66
-2 c-62 -2 -67 0 -78 23 -17 38 12 65 69 65 37 0 43 3 43 20 0 26 -36 40 -75
29 -37 -11 -35 -11 -35 1 0 30 90 34 118 6z m218 3 c22 -18 6 -29 -22 -14 -63
32 -124 -45 -77 -97 17 -19 78 -25 88 -8 4 6 11 8 16 4 20 -12 -14 -34 -54
-34 -54 0 -87 30 -87 80 0 38 13 60 45 79 22 12 71 7 91 -10z m182 5 c30 -21
18 -36 -14 -19 -34 17 -65 6 -82 -28 -20 -41 2 -81 46 -85 18 -2 39 1 46 7 17
14 29 2 15 -16 -6 -7 -31 -13 -54 -13 -35 0 -48 5 -64 26 -59 75 31 182 107
128z m203 -13 c16 -16 29 -39 29 -50 0 -19 -6 -21 -70 -21 -72 0 -82 -7 -53
-35 13 -14 28 -16 66 -12 42 5 47 4 37 -8 -14 -17 -82 -20 -110 -5 -36 19 -45
92 -16 129 30 38 80 39 117 2z m174 19 c14 -5 24 -14 20 -20 -3 -6 -15 -6 -29
0 -33 12 -66 2 -66 -21 0 -12 9 -21 28 -25 74 -15 97 -41 67 -74 -18 -20 -75
-27 -109 -14 -33 13 -14 20 39 16 50 -4 55 -3 55 16 0 21 -18 32 -51 32 -29 0
-59 35 -52 60 9 34 52 47 98 30z m173 4 c36 -10 26 -27 -12 -21 -45 7 -76 -13
-57 -37 7 -9 23 -16 35 -16 49 0 83 -49 54 -78 -13 -13 -85 -16 -112 -6 -30
12 -6 21 42 16 39 -3 50 -1 55 12 7 17 -6 25 -68 44 -39 11 -47 53 -13 76 24
17 40 19 76 10z m195 -6 c33 -17 46 -39 47 -77 0 -51 -32 -81 -86 -81 -34 0
-47 5 -63 26 -57 72 23 175 102 132z m162 -2 c24 18 35 18 35 -1 0 -8 -9 -15
-20 -15 -27 0 -40 -29 -40 -89 0 -39 -4 -51 -15 -51 -12 0 -15 15 -15 78 0 82
7 103 25 79 9 -13 13 -13 30 -1z m115 -71 c0 -50 -4 -85 -10 -85 -6 0 -10 35
-10 85 0 50 4 85 10 85 6 0 10 -35 10 -85z m202 57 c9 -9 20 -29 23 -44 l7
-28 -71 0 c-72 0 -83 -7 -55 -34 17 -18 79 -22 89 -6 4 6 11 8 16 4 21 -13
-14 -34 -57 -34 -70 0 -111 57 -82 116 25 53 90 66 130 26z m173 18 c14 -5 24
-14 20 -20 -3 -6 -15 -6 -29 0 -33 12 -66 2 -66 -21 0 -12 9 -21 28 -25 54
-11 72 -23 72 -47 0 -13 -5 -28 -12 -35 -19 -19 -118 -14 -118 7 0 4 24 7 52
6 41 0 53 4 56 17 3 16 -4 20 -60 32 -50 11 -59 68 -14 86 28 12 40 12 71 0z"/>
<path d="M972 1668 c-5 -7 -16 -39 -23 -72 -17 -76 -37 -103 -67 -87 -31 17
-39 14 -45 -19 l-6 -29 -30 17 c-30 17 -31 17 -63 -16 -29 -29 -31 -34 -20
-53 43 -68 54 -100 47 -136 -8 -46 -40 -74 -107 -93 l-53 -16 -3 -46 c-3 -50
-8 -46 74 -67 85 -22 115 -97 70 -177 -32 -57 -32 -74 -3 -102 30 -28 39 -28
87 3 58 37 113 34 154 -7 21 -21 36 -48 40 -73 10 -53 22 -65 61 -65 38 0 50
12 60 60 12 59 42 98 86 111 36 11 44 10 100 -19 66 -34 84 -32 113 10 11 16
12 26 4 41 -10 20 2 37 30 37 16 0 15 15 -3 49 -20 40 -5 55 80 75 38 10 73
23 77 29 9 14 11 169 2 191 -4 9 -34 21 -80 32 -100 22 -105 33 -54 117 22 36
40 70 40 74 0 13 -134 143 -148 143 -6 0 -41 -18 -76 -40 -62 -37 -66 -38 -84
-22 -11 10 -25 43 -32 77 -7 33 -17 66 -22 73 -7 8 -41 12 -103 12 -62 0 -96
-4 -103 -12z m209 -351 c24 -13 61 -45 81 -72 36 -47 37 -51 35 -124 -3 -96
-34 -157 -103 -197 -116 -68 -260 -28 -318 88 -59 117 -16 251 97 307 59 30
149 29 208 -2z"/>
<path d="M979 1297 c-24 -13 -57 -43 -74 -66 -27 -38 -30 -51 -30 -115 0 -64
4 -78 29 -114 34 -50 112 -92 171 -92 58 0 137 42 171 91 21 31 29 55 32 102
l3 62 -51 -77 c-40 -62 -56 -78 -75 -78 -30 0 -39 16 -54 99 -7 34 -15 69 -18
77 -4 10 4 14 30 14 35 0 36 -1 43 -45 3 -25 9 -47 13 -49 3 -2 19 18 36 45
16 27 35 49 42 49 19 0 16 9 -13 48 -55 71 -171 93 -255 49z m84 -107 c4 -3 5
-14 1 -24 -5 -12 -16 -16 -40 -14 -45 4 -47 -12 -4 -27 29 -9 36 -17 38 -42 6
-57 -71 -91 -143 -63 -22 8 -24 13 -15 30 9 17 17 19 55 13 50 -6 63 10 18 22
-32 8 -63 33 -63 50 0 23 41 64 68 68 31 4 73 -2 85 -13z"/>
<path d="M4266 1380 c-61 -19 -105 -90 -106 -170 0 -140 178 -159 247 -27 22
43 22 125 -1 159 -27 41 -80 56 -140 38z"/>
<path d="M2399 1267 c-18 -34 -35 -65 -37 -69 -2 -5 22 -8 53 -8 54 0 57 1 52
23 -4 12 -9 41 -13 65 -4 23 -10 44 -13 47 -4 2 -23 -24 -42 -58z"/>
<path d="M5577 1260 l-38 -70 57 0 57 0 -7 33 c-4 17 -9 49 -13 70 -3 20 -8
37 -12 37 -3 0 -23 -32 -44 -70z"/>
<path d="M6201 1323 c-18 -89 -19 -86 49 -81 71 5 100 26 100 73 0 45 -26 65
-87 65 l-50 0 -12 -57z"/>
<path d="M5090 732 c-72 -23 -61 -122 14 -122 42 0 56 15 56 61 0 45 -32 73
-70 61z"/>
<path d="M3667 730 l-25 -55 45 -3 c25 -2 47 -1 49 1 2 2 -7 28 -20 58 l-24
54 -25 -55z"/>
<path d="M2328 729 c-10 -5 -22 -19 -28 -29 -10 -19 -7 -20 50 -20 62 0 69 5
48 32 -17 22 -49 29 -70 17z"/>
<path d="M3339 726 c-13 -6 -25 -19 -27 -29 -3 -14 5 -17 52 -17 41 0 56 4 56
14 0 30 -48 49 -81 32z"/>
<path d="M4269 726 c-35 -17 -46 -58 -25 -91 14 -22 23 -26 54 -23 29 2 40 9
50 31 26 53 -27 109 -79 83z"/>
<path d="M4840 727 c-17 -9 -26 -22 -28 -44 -5 -49 13 -73 53 -73 41 0 65 22
65 59 0 52 -45 81 -90 58z"/>
<path d="M5498 729 c-10 -5 -22 -19 -28 -29 -10 -19 -7 -20 50 -20 62 0 69 5
48 32 -17 22 -49 29 -70 17z"/>
<path d="M5780 636 c0 -30 36 -41 67 -20 39 25 29 44 -22 44 -41 0 -45 -2 -45
-24z"/>
<path d="M6400 727 c-14 -7 -26 -20 -28 -30 -3 -15 5 -17 58 -17 57 0 60 1 50
20 -9 16 -40 40 -52 40 -2 0 -14 -6 -28 -13z"/>
<path d="M6959 726 c-18 -8 -25 -21 -27 -49 -4 -48 11 -67 54 -67 55 0 86 68
47 102 -28 23 -48 27 -74 14z"/>
<path d="M7419 726 c-13 -6 -25 -19 -27 -29 -3 -14 5 -17 52 -17 41 0 56 4 56
14 0 30 -48 49 -81 32z"/>
</g>
</svg>
