<?xml version="1.0" standalone="no"?>
<!DOCTYPE svg PUBLIC "-//W3C//DTD SVG 20010904//EN"
 "http://www.w3.org/TR/2001/REC-SVG-20010904/DTD/svg10.dtd">
<svg version="1.0" xmlns="http://www.w3.org/2000/svg"
 width="186.000000pt" height="214.000000pt" viewBox="0 0 186.000000 214.000000"
 preserveAspectRatio="xMidYMid meet">

<g transform="translate(0.000000,214.000000) scale(0.100000,-0.100000)"
fill="#000000" stroke="none">
<path d="M0 1070 l0 -1070 930 0 930 0 0 1070 0 1070 -930 0 -930 0 0 -1070z
m1010 833 c0 -5 -19 -21 -42 -38 l-42 -29 89 -12 c314 -39 560 -237 667 -540
30 -84 32 -97 32 -239 1 -130 -2 -160 -22 -225 -82 -260 -272 -457 -517 -537
-117 -38 -316 -44 -435 -14 -272 69 -480 262 -570 531 -24 72 -44 230 -31 243
5 5 12 -20 16 -59 30 -288 186 -517 435 -640 108 -53 205 -75 335 -75 197 0
359 61 510 190 95 82 132 130 190 254 111 235 98 496 -36 725 -46 77 -189 218
-269 265 -81 47 -223 93 -315 102 l-70 7 34 -36 c47 -49 30 -59 -19 -11 -50
49 -51 74 -2 114 36 29 62 39 62 24z m33 -298 c9 -8 18 -29 22 -47 14 -71 26
-108 34 -108 5 0 39 18 76 39 63 37 70 39 94 27 44 -23 141 -132 141 -158 0
-13 -16 -48 -35 -78 -19 -30 -35 -59 -35 -65 0 -6 33 -19 73 -29 41 -9 79 -22
85 -28 17 -17 16 -222 0 -235 -7 -6 -46 -18 -85 -28 -40 -9 -73 -22 -73 -29 0
-6 7 -22 16 -35 16 -23 38 -24 86 -6 13 5 22 -3 37 -34 41 -79 27 -113 -86
-223 -94 -91 -129 -103 -198 -70 l-42 20 -14 -45 c-22 -71 -50 -87 -169 -91
-55 -3 -115 -1 -134 2 -46 9 -93 49 -101 86 -9 39 -19 44 -54 25 -17 -8 -49
-15 -72 -15 -39 0 -47 6 -135 91 -108 107 -121 137 -84 208 19 39 20 42 3 47
-88 27 -113 62 -121 165 -11 152 19 226 99 250 22 7 38 15 36 18 -55 98 -47
132 51 234 111 114 145 127 229 86 33 -16 43 -26 38 -38 -4 -9 -9 -30 -12 -47
-4 -26 -1 -33 16 -39 30 -9 36 -2 50 62 22 101 25 103 146 103 78 0 107 -4
118 -15z"/>
<path d="M822 1583 c-5 -10 -12 -31 -16 -48 -26 -113 -34 -123 -80 -100 -25
13 -26 12 -32 -13 -10 -41 -12 -42 -45 -24 -30 17 -30 17 -59 -16 l-30 -32 30
-53 c33 -60 37 -94 15 -137 -18 -34 -40 -48 -104 -64 -46 -11 -46 -11 -49 -58
-3 -50 -8 -46 75 -68 53 -13 93 -59 93 -106 0 -19 -12 -56 -27 -84 -31 -55
-27 -73 19 -99 23 -13 28 -12 57 8 80 57 157 45 191 -31 11 -24 20 -51 20 -60
0 -25 28 -48 59 -48 35 0 46 12 61 69 16 61 36 88 75 101 39 13 77 5 128 -27
40 -25 56 -23 91 16 16 18 17 25 8 46 -10 21 -9 27 3 30 49 16 47 13 30 39
-32 49 -18 67 70 90 l80 21 0 105 c0 119 13 103 -107 135 -71 19 -73 32 -23
115 19 32 35 64 35 72 0 20 -122 138 -143 138 -10 0 -43 -16 -73 -35 -55 -36
-88 -43 -99 -24 -4 6 -15 43 -24 82 l-16 72 -102 3 c-89 2 -103 1 -111 -15z
m206 -342 c39 -20 77 -57 106 -105 29 -46 20 -170 -16 -224 -80 -120 -246
-135 -350 -31 -86 86 -91 202 -13 305 54 70 189 98 273 55z"/>
<path d="M877 1235 c-88 -22 -144 -88 -155 -182 -13 -120 102 -234 222 -221
59 7 113 35 143 75 30 39 54 121 46 153 -5 18 -13 11 -50 -49 -40 -64 -48 -71
-77 -71 -33 0 -33 0 -49 75 -23 102 -22 105 13 105 26 0 30 -4 36 -37 11 -65
18 -66 49 -13 16 27 37 50 47 52 16 3 15 7 -13 41 -54 66 -132 92 -212 72z
m46 -122 c19 -11 -14 -38 -47 -38 -43 0 -47 -17 -6 -28 67 -17 61 -87 -9 -108
-40 -12 -111 -5 -111 11 0 31 13 39 56 33 50 -7 62 11 15 22 -64 14 -70 78
-11 108 32 16 87 16 113 0z"/>
</g>
</svg>
